<svg id="レイヤー_1" data-name="レイヤー 1" xmlns="http://www.w3.org/2000/svg" viewBox="0 0 33.601 40.874"><defs><style>.cls-1{fill:#fff;fill-rule:evenodd;}</style></defs><path class="cls-1" d="M27.142,30.471a5.2,5.2,0,1,0,5.172,5.2A5.187,5.187,0,0,0,27.142,30.471Zm0,6.241h0a1.04,1.04,0,1,1,1.034-1.04A1.037,1.037,0,0,1,27.142,36.712ZM8.52,30.471a5.2,5.2,0,1,0,5.173,5.2A5.187,5.187,0,0,0,8.52,30.471Zm0,6.241h0a1.04,1.04,0,1,1,1.035-1.04A1.037,1.037,0,0,1,8.52,36.712ZM32.067,8.363h0a2.068,2.068,0,0,0-2.535,1.47h0l-.332,1.91H7.2L4.059,1.511a2.07,2.07,0,0,0-4,1.078l6.8,22.177A2.071,2.071,0,0,0,8.842,26.3c.032,0,.061.008.093.008H29.026c.032,0,.062-.007.093-.01A2.063,2.063,0,0,0,31.1,24.766l2.434-13.855A2.08,2.08,0,0,0,32.067,8.363Zm-4.7,13.784H10.391L8.476,15.905H28.465Z"/></svg>