<svg id="レイヤー_1" data-name="レイヤー 1" xmlns="http://www.w3.org/2000/svg" viewBox="0 0 82.486 94.13"><defs><style>.cls-1{fill:#231815;}</style></defs><path class="cls-1" d="M14.611,12.731c0,2.357-1.529,4.965-5.591,4.965h-7.5V.422h7c3.159,0,5.19,1.905,5.19,4.462a3.49,3.49,0,0,1-2.432,3.585,3.994,3.994,0,0,1,3.334,4.262M8.244,3.857H5.46V7.166H8.218A1.491,1.491,0,0,0,9.773,5.511,1.479,1.479,0,0,0,8.244,3.857m.3,10.4a1.938,1.938,0,1,0,0-3.861H5.46v3.861Z"/><path class="cls-1" d="M26.446,5.988h3.71V17.7h-3.71V16.217A4.626,4.626,0,0,1,22.736,18c-3.284,0-5.591-2.482-5.591-6.142,0-3.686,2.307-6.167,5.641-6.167a4.606,4.606,0,0,1,3.66,1.7Zm-.125,5.866a2.7,2.7,0,0,0-2.708-2.733,2.65,2.65,0,0,0-2.682,2.733,2.68,2.68,0,0,0,2.707,2.708,2.723,2.723,0,0,0,2.683-2.708"/><path class="cls-1" d="M45.6,11.4V17.7h-3.71V11.628c0-1.8-1.1-2.507-2.031-2.507A2.174,2.174,0,0,0,37.6,11.6V17.7h-3.71V5.987H37.6V8.093a3.561,3.561,0,0,1,3.36-2.406c3.109,0,4.638,2.131,4.638,5.716"/><path class="cls-1" d="M8.344,38.31c4.988,0,7.872,3.76,7.872,8.674,0,4.889-2.884,8.6-7.872,8.6H1.524V38.31Zm0,13.839c2.582,0,3.911-2.482,3.911-5.165,0-2.707-1.329-5.24-3.911-5.24H5.46V52.149Z"/><path class="cls-1" d="M31.21,50.82H22.636a2.646,2.646,0,0,0,2.732,1.83,4.44,4.44,0,0,0,2.959-1.2l1.9,2.407a7.175,7.175,0,0,1-5.115,2.03A5.979,5.979,0,0,1,18.8,49.767a6.071,6.071,0,0,1,6.293-6.192,5.892,5.892,0,0,1,6.167,5.917c0,.325-.025.752-.05,1.328m-3.635-2.181a2.181,2.181,0,0,0-2.407-1.931,2.483,2.483,0,0,0-2.558,1.931Z"/><path class="cls-1" d="M33.593,51.8H37.1a1.307,1.307,0,0,0,1.479,1.253c.777,0,1.429-.4,1.429-.953,0-.375-.275-.551-1.153-.751l-1.53-.4c-3.434-.927-3.535-2.882-3.535-3.86,0-1.73,1.956-3.51,4.789-3.51,2.206,0,4.889,1.028,4.839,3.961h-3.51a1.1,1.1,0,0,0-1.253-1.128c-.627,0-1.154.3-1.154.8,0,.451.4.7,1,.853l2.031.551c2.933.8,3.184,2.658,3.184,3.46,0,2.582-2.683,3.81-5.04,3.81-2.607,0-5.089-1.428-5.089-4.086"/><path class="cls-1" d="M46.355,39.965a2.225,2.225,0,0,1,2.307-2.157,2.179,2.179,0,0,1,2.256,2.157,2.211,2.211,0,0,1-2.256,2.156,2.257,2.257,0,0,1-2.307-2.156m.451,3.911h3.711V55.583H46.806Z"/><path class="cls-1" d="M62.9,43.876h3.685v10.3c0,4.964-2.607,7.471-6.844,7.471A6.284,6.284,0,0,1,53.9,57.89l3.059-1.228a3.129,3.129,0,0,0,2.783,1.73c1.93,0,3.159-1.079,3.159-3.761V54.28a4.825,4.825,0,0,1-3.635,1.6A5.834,5.834,0,0,1,53.6,49.717a5.811,5.811,0,0,1,5.666-6.142A4.8,4.8,0,0,1,62.9,45.154Zm-.15,5.841A2.7,2.7,0,1,0,60.07,52.45a2.741,2.741,0,0,0,2.683-2.733"/><path class="cls-1" d="M82.034,49.291v6.292h-3.71V49.517c0-1.806-1.1-2.508-2.031-2.508a2.174,2.174,0,0,0-2.257,2.482v6.092h-3.71V43.876h3.71v2.105a3.562,3.562,0,0,1,3.36-2.406c3.109,0,4.638,2.131,4.638,5.716"/><path class="cls-1" d="M.621,88.551H4.557a2.236,2.236,0,0,0,2.457,1.956c1.279,0,2.257-.652,2.257-1.78,0-.677-.376-1.3-1.905-1.805L5.31,86.3C1.5,85.267.772,82.935.772,81.306c0-3.109,2.658-5.29,6.093-5.29,3.308,0,5.841,1.98,5.841,5.34H8.769a1.808,1.808,0,0,0-1.98-1.905,1.871,1.871,0,0,0-2.03,1.779c0,.351.1,1.129,1.7,1.58l1.805.577c2.457.752,4.964,2,4.964,5.139,0,3.711-3.209,5.365-6.367,5.365-3.686,0-6.244-2.156-6.244-5.34"/><path class="cls-1" d="M24.517,84.651h-3.31v4.062a7.538,7.538,0,0,0,.05.916,1.847,1.847,0,0,0,.226.714,1.131,1.131,0,0,0,.539.464,2.382,2.382,0,0,0,.965.163,6.258,6.258,0,0,0,.79-.063,1.329,1.329,0,0,0,.74-.288v3.134a5.661,5.661,0,0,1-1.3.3,12.061,12.061,0,0,1-1.329.076,7.259,7.259,0,0,1-1.755-.2,4,4,0,0,1-1.4-.64,3,3,0,0,1-.941-1.14,3.912,3.912,0,0,1-.338-1.7V84.651H15.039V81.643h2.407V78.032h3.761v3.611h3.31Z"/><path class="cls-1" d="M35.749,81.882h3.71V93.59h-3.71V91.585c-.4,1.629-2.282,2.306-3.359,2.306-3.11,0-4.639-2.106-4.639-5.691V81.882h3.711v6.093c0,1.805,1.078,2.481,2.03,2.481a2.184,2.184,0,0,0,2.257-2.481Z"/><path class="cls-1" d="M51.846,75.514h3.685V93.59H51.846v-1.3a4.706,4.706,0,0,1-3.635,1.6,6.176,6.176,0,0,1,0-12.31,4.759,4.759,0,0,1,3.635,1.58Zm-.15,12.21a2.7,2.7,0,1,0-2.683,2.732A2.741,2.741,0,0,0,51.7,87.724"/><path class="cls-1" d="M58.818,77.971a2.224,2.224,0,0,1,2.306-2.156,2.181,2.181,0,0,1,2.257,2.156,2.212,2.212,0,0,1-2.257,2.156,2.256,2.256,0,0,1-2.306-2.156m.451,3.911h3.71V93.59h-3.71Z"/><path class="cls-1" d="M66.039,87.749a6.359,6.359,0,1,1,6.342,6.143,6.167,6.167,0,0,1-6.342-6.143m8.925,0a2.585,2.585,0,1,0-2.583,2.707,2.6,2.6,0,0,0,2.583-2.707"/></svg>